<svg xmlns="http://www.w3.org/2000/svg" version="1.1" xmlns:xlink="http://www.w3.org/1999/xlink" xmlns:svgjs="http://svgjs.com/svgjs" width="1440" height="560" preserveAspectRatio="none" viewBox="0 0 1440 560"><g mask="url(&quot;#SvgjsMask1044&quot;)" fill="none"><rect width="1440" height="560" x="0" y="0" fill="rgba(17, 29, 42, 1)"></rect><path d="M-76.96 342.47L-76.96 342.47" stroke="rgba(43, 62, 102, 1)" stroke-width="1.5"></path><path d="M-76.96 342.47L-46.74 503.16" stroke="rgba(43, 62, 102, 1)" stroke-width="1.5"></path><path d="M-76.96 342.47L111.16 344.01" stroke="rgba(43, 62, 102, 1)" stroke-width="1.5"></path><path d="M-76.96 342.47L38.46 554.17" stroke="rgba(43, 62, 102, 1)" stroke-width="1.5"></path><path d="M-46.74 503.16L-46.74 503.16" stroke="rgba(43, 62, 102, 1)" stroke-width="1.5"></path><path d="M-46.74 503.16L38.46 554.17" stroke="rgba(43, 62, 102, 1)" stroke-width="1.5"></path><path d="M-46.74 503.16L-82.99 662.69" stroke="rgba(43, 62, 102, 1)" stroke-width="1.5"></path><path d="M-82.99 662.69L-82.99 662.69" stroke="rgba(43, 62, 102, 1)" stroke-width="1.5"></path><path d="M-82.99 662.69L38.46 554.17" stroke="rgba(43, 62, 102, 1)" stroke-width="1.5"></path><path d="M-82.99 662.69L76.43 698.74" stroke="rgba(43, 62, 102, 1)" stroke-width="1.5"></path><path d="M111.16 344.01L111.16 344.01" stroke="rgba(43, 62, 102, 1)" stroke-width="1.5"></path><path d="M111.16 344.01L212.59 400.85" stroke="rgba(43, 62, 102, 1)" stroke-width="1.5"></path><path d="M111.16 344.01L38.46 554.17" stroke="rgba(43, 62, 102, 1)" stroke-width="1.5"></path><path d="M38.46 554.17L38.46 554.17" stroke="rgba(43, 62, 102, 1)" stroke-width="1.5"></path><path d="M38.46 554.17L76.43 698.74" stroke="rgba(43, 62, 102, 1)" stroke-width="1.5"></path><path d="M38.46 554.17L198.44 560.15" stroke="rgba(43, 62, 102, 1)" stroke-width="1.5"></path><path d="M76.43 698.74L76.43 698.74" stroke="rgba(43, 62, 102, 1)" stroke-width="1.5"></path><path d="M76.43 698.74L207.86 698.88" stroke="rgba(43, 62, 102, 1)" stroke-width="1.5"></path><path d="M76.43 698.74L198.44 560.15" stroke="rgba(43, 62, 102, 1)" stroke-width="1.5"></path><path d="M212.59 400.85L212.59 400.85" stroke="rgba(43, 62, 102, 1)" stroke-width="1.5"></path><path d="M212.59 400.85L198.44 560.15" stroke="rgba(43, 62, 102, 1)" stroke-width="1.5"></path><path d="M212.59 400.85L379.29 376.09" stroke="rgba(43, 62, 102, 1)" stroke-width="1.5"></path><path d="M212.59 400.85L38.46 554.17" stroke="rgba(43, 62, 102, 1)" stroke-width="1.5"></path><path d="M212.59 400.85L-46.74 503.16" stroke="rgba(43, 62, 102, 1)" stroke-width="1.5"></path><path d="M198.44 560.15L198.44 560.15" stroke="rgba(43, 62, 102, 1)" stroke-width="1.5"></path><path d="M198.44 560.15L207.86 698.88" stroke="rgba(43, 62, 102, 1)" stroke-width="1.5"></path><path d="M207.86 698.88L207.86 698.88" stroke="rgba(43, 62, 102, 1)" stroke-width="1.5"></path><path d="M379.29 376.09L379.29 376.09" stroke="rgba(43, 62, 102, 1)" stroke-width="1.5"></path><path d="M379.29 376.09L503.9 353.81" stroke="rgba(43, 62, 102, 1)" stroke-width="1.5"></path><path d="M379.29 376.09L528.51 528.48" stroke="rgba(43, 62, 102, 1)" stroke-width="1.5"></path><path d="M379.29 376.09L198.44 560.15" stroke="rgba(43, 62, 102, 1)" stroke-width="1.5"></path><path d="M406.86 653.87L406.86 653.87" stroke="rgba(43, 62, 102, 1)" stroke-width="1.5"></path><path d="M406.86 653.87L540.42 676.01" stroke="rgba(43, 62, 102, 1)" stroke-width="1.5"></path><path d="M406.86 653.87L528.51 528.48" stroke="rgba(43, 62, 102, 1)" stroke-width="1.5"></path><path d="M406.86 653.87L207.86 698.88" stroke="rgba(43, 62, 102, 1)" stroke-width="1.5"></path><path d="M503.9 353.81L503.9 353.81" stroke="rgba(43, 62, 102, 1)" stroke-width="1.5"></path><path d="M503.9 353.81L528.51 528.48" stroke="rgba(43, 62, 102, 1)" stroke-width="1.5"></path><path d="M503.9 353.81L700.72 358.34" stroke="rgba(43, 62, 102, 1)" stroke-width="1.5"></path><path d="M503.9 353.81L706.32 225.57" stroke="rgba(43, 62, 102, 1)" stroke-width="1.5"></path><path d="M528.51 528.48L528.51 528.48" stroke="rgba(43, 62, 102, 1)" stroke-width="1.5"></path><path d="M528.51 528.48L540.42 676.01" stroke="rgba(43, 62, 102, 1)" stroke-width="1.5"></path><path d="M528.51 528.48L705.65 503.97" stroke="rgba(43, 62, 102, 1)" stroke-width="1.5"></path><path d="M528.51 528.48L665.58 679.69" stroke="rgba(43, 62, 102, 1)" stroke-width="1.5"></path><path d="M540.42 676.01L540.42 676.01" stroke="rgba(43, 62, 102, 1)" stroke-width="1.5"></path><path d="M540.42 676.01L665.58 679.69" stroke="rgba(43, 62, 102, 1)" stroke-width="1.5"></path><path d="M540.42 676.01L705.65 503.97" stroke="rgba(43, 62, 102, 1)" stroke-width="1.5"></path><path d="M706.32 225.57L706.32 225.57" stroke="rgba(43, 62, 102, 1)" stroke-width="1.5"></path><path d="M706.32 225.57L700.72 358.34" stroke="rgba(43, 62, 102, 1)" stroke-width="1.5"></path><path d="M706.32 225.57L856.64 232.66" stroke="rgba(43, 62, 102, 1)" stroke-width="1.5"></path><path d="M700.72 358.34L700.72 358.34" stroke="rgba(43, 62, 102, 1)" stroke-width="1.5"></path><path d="M700.72 358.34L832.38 393.69" stroke="rgba(43, 62, 102, 1)" stroke-width="1.5"></path><path d="M700.72 358.34L705.65 503.97" stroke="rgba(43, 62, 102, 1)" stroke-width="1.5"></path><path d="M705.65 503.97L705.65 503.97" stroke="rgba(43, 62, 102, 1)" stroke-width="1.5"></path><path d="M705.65 503.97L834.35 524.19" stroke="rgba(43, 62, 102, 1)" stroke-width="1.5"></path><path d="M665.58 679.69L665.58 679.69" stroke="rgba(43, 62, 102, 1)" stroke-width="1.5"></path><path d="M665.58 679.69L822.39 659.58" stroke="rgba(43, 62, 102, 1)" stroke-width="1.5"></path><path d="M665.58 679.69L705.65 503.97" stroke="rgba(43, 62, 102, 1)" stroke-width="1.5"></path><path d="M665.58 679.69L834.35 524.19" stroke="rgba(43, 62, 102, 1)" stroke-width="1.5"></path><path d="M665.58 679.69L406.86 653.87" stroke="rgba(43, 62, 102, 1)" stroke-width="1.5"></path><path d="M856.64 232.66L856.64 232.66" stroke="rgba(43, 62, 102, 1)" stroke-width="1.5"></path><path d="M856.64 232.66L1000.2 195.34" stroke="rgba(43, 62, 102, 1)" stroke-width="1.5"></path><path d="M856.64 232.66L832.38 393.69" stroke="rgba(43, 62, 102, 1)" stroke-width="1.5"></path><path d="M832.38 393.69L832.38 393.69" stroke="rgba(43, 62, 102, 1)" stroke-width="1.5"></path><path d="M832.38 393.69L834.35 524.19" stroke="rgba(43, 62, 102, 1)" stroke-width="1.5"></path><path d="M834.35 524.19L834.35 524.19" stroke="rgba(43, 62, 102, 1)" stroke-width="1.5"></path><path d="M834.35 524.19L822.39 659.58" stroke="rgba(43, 62, 102, 1)" stroke-width="1.5"></path><path d="M822.39 659.58L822.39 659.58" stroke="rgba(43, 62, 102, 1)" stroke-width="1.5"></path><path d="M822.39 659.58L959.82 663.8" stroke="rgba(43, 62, 102, 1)" stroke-width="1.5"></path><path d="M1003.44 -41.65L1003.44 -41.65" stroke="rgba(43, 62, 102, 1)" stroke-width="1.5"></path><path d="M1003.44 -41.65L1117.32 -66.9" stroke="rgba(43, 62, 102, 1)" stroke-width="1.5"></path><path d="M1003.44 -41.65L1007.97 105.94" stroke="rgba(43, 62, 102, 1)" stroke-width="1.5"></path><path d="M1007.97 105.94L1007.97 105.94" stroke="rgba(43, 62, 102, 1)" stroke-width="1.5"></path><path d="M1007.97 105.94L1000.2 195.34" stroke="rgba(43, 62, 102, 1)" stroke-width="1.5"></path><path d="M1007.97 105.94L1139.47 103.85" stroke="rgba(43, 62, 102, 1)" stroke-width="1.5"></path><path d="M1000.2 195.34L1000.2 195.34" stroke="rgba(43, 62, 102, 1)" stroke-width="1.5"></path><path d="M1000.2 195.34L1113.78 193.05" stroke="rgba(43, 62, 102, 1)" stroke-width="1.5"></path><path d="M1000.2 195.34L1139.47 103.85" stroke="rgba(43, 62, 102, 1)" stroke-width="1.5"></path><path d="M970.04 399.78L970.04 399.78" stroke="rgba(43, 62, 102, 1)" stroke-width="1.5"></path><path d="M970.04 399.78L976.54 502.95" stroke="rgba(43, 62, 102, 1)" stroke-width="1.5"></path><path d="M970.04 399.78L832.38 393.69" stroke="rgba(43, 62, 102, 1)" stroke-width="1.5"></path><path d="M970.04 399.78L1136.41 385.26" stroke="rgba(43, 62, 102, 1)" stroke-width="1.5"></path><path d="M970.04 399.78L1123.1 495.68" stroke="rgba(43, 62, 102, 1)" stroke-width="1.5"></path><path d="M970.04 399.78L834.35 524.19" stroke="rgba(43, 62, 102, 1)" stroke-width="1.5"></path><path d="M976.54 502.95L976.54 502.95" stroke="rgba(43, 62, 102, 1)" stroke-width="1.5"></path><path d="M976.54 502.95L834.35 524.19" stroke="rgba(43, 62, 102, 1)" stroke-width="1.5"></path><path d="M976.54 502.95L1123.1 495.68" stroke="rgba(43, 62, 102, 1)" stroke-width="1.5"></path><path d="M959.82 663.8L959.82 663.8" stroke="rgba(43, 62, 102, 1)" stroke-width="1.5"></path><path d="M959.82 663.8L976.54 502.95" stroke="rgba(43, 62, 102, 1)" stroke-width="1.5"></path><path d="M1117.32 -66.9L1117.32 -66.9" stroke="rgba(43, 62, 102, 1)" stroke-width="1.5"></path><path d="M1117.32 -66.9L1139.47 103.85" stroke="rgba(43, 62, 102, 1)" stroke-width="1.5"></path><path d="M1117.32 -66.9L1306.53 -75.99" stroke="rgba(43, 62, 102, 1)" stroke-width="1.5"></path><path d="M1117.32 -66.9L1007.97 105.94" stroke="rgba(43, 62, 102, 1)" stroke-width="1.5"></path><path d="M1139.47 103.85L1139.47 103.85" stroke="rgba(43, 62, 102, 1)" stroke-width="1.5"></path><path d="M1139.47 103.85L1113.78 193.05" stroke="rgba(43, 62, 102, 1)" stroke-width="1.5"></path><path d="M1139.47 103.85L1308.55 77.77" stroke="rgba(43, 62, 102, 1)" stroke-width="1.5"></path><path d="M1113.78 193.05L1113.78 193.05" stroke="rgba(43, 62, 102, 1)" stroke-width="1.5"></path><path d="M1113.78 193.05L1007.97 105.94" stroke="rgba(43, 62, 102, 1)" stroke-width="1.5"></path><path d="M1113.78 193.05L1294.76 216.89" stroke="rgba(43, 62, 102, 1)" stroke-width="1.5"></path><path d="M1136.41 385.26L1136.41 385.26" stroke="rgba(43, 62, 102, 1)" stroke-width="1.5"></path><path d="M1136.41 385.26L1123.1 495.68" stroke="rgba(43, 62, 102, 1)" stroke-width="1.5"></path><path d="M1136.41 385.26L1297.48 370.86" stroke="rgba(43, 62, 102, 1)" stroke-width="1.5"></path><path d="M1136.41 385.26L1113.78 193.05" stroke="rgba(43, 62, 102, 1)" stroke-width="1.5"></path><path d="M1136.41 385.26L976.54 502.95" stroke="rgba(43, 62, 102, 1)" stroke-width="1.5"></path><path d="M1123.1 495.68L1123.1 495.68" stroke="rgba(43, 62, 102, 1)" stroke-width="1.5"></path><path d="M1123.1 495.68L1134.44 641.62" stroke="rgba(43, 62, 102, 1)" stroke-width="1.5"></path><path d="M1123.1 495.68L1300.64 507.83" stroke="rgba(43, 62, 102, 1)" stroke-width="1.5"></path><path d="M1134.44 641.62L1134.44 641.62" stroke="rgba(43, 62, 102, 1)" stroke-width="1.5"></path><path d="M1134.44 641.62L1274.13 648.25" stroke="rgba(43, 62, 102, 1)" stroke-width="1.5"></path><path d="M1134.44 641.62L959.82 663.8" stroke="rgba(43, 62, 102, 1)" stroke-width="1.5"></path><path d="M1134.44 641.62L976.54 502.95" stroke="rgba(43, 62, 102, 1)" stroke-width="1.5"></path><path d="M1134.44 641.62L1300.64 507.83" stroke="rgba(43, 62, 102, 1)" stroke-width="1.5"></path><path d="M1306.53 -75.99L1306.53 -75.99" stroke="rgba(43, 62, 102, 1)" stroke-width="1.5"></path><path d="M1306.53 -75.99L1457.22 -82.28" stroke="rgba(43, 62, 102, 1)" stroke-width="1.5"></path><path d="M1306.53 -75.99L1308.55 77.77" stroke="rgba(43, 62, 102, 1)" stroke-width="1.5"></path><path d="M1306.53 -75.99L1139.47 103.85" stroke="rgba(43, 62, 102, 1)" stroke-width="1.5"></path><path d="M1308.55 77.77L1308.55 77.77" stroke="rgba(43, 62, 102, 1)" stroke-width="1.5"></path><path d="M1308.55 77.77L1294.76 216.89" stroke="rgba(43, 62, 102, 1)" stroke-width="1.5"></path><path d="M1308.55 77.77L1453.44 222.86" stroke="rgba(43, 62, 102, 1)" stroke-width="1.5"></path><path d="M1308.55 77.77L1457.22 -82.28" stroke="rgba(43, 62, 102, 1)" stroke-width="1.5"></path><path d="M1294.76 216.89L1294.76 216.89" stroke="rgba(43, 62, 102, 1)" stroke-width="1.5"></path><path d="M1294.76 216.89L1297.48 370.86" stroke="rgba(43, 62, 102, 1)" stroke-width="1.5"></path><path d="M1294.76 216.89L1453.44 222.86" stroke="rgba(43, 62, 102, 1)" stroke-width="1.5"></path><path d="M1297.48 370.86L1297.48 370.86" stroke="rgba(43, 62, 102, 1)" stroke-width="1.5"></path><path d="M1297.48 370.86L1431.08 362.96" stroke="rgba(43, 62, 102, 1)" stroke-width="1.5"></path><path d="M1297.48 370.86L1300.64 507.83" stroke="rgba(43, 62, 102, 1)" stroke-width="1.5"></path><path d="M1300.64 507.83L1300.64 507.83" stroke="rgba(43, 62, 102, 1)" stroke-width="1.5"></path><path d="M1300.64 507.83L1274.13 648.25" stroke="rgba(43, 62, 102, 1)" stroke-width="1.5"></path><path d="M1300.64 507.83L1448.8 554.27" stroke="rgba(43, 62, 102, 1)" stroke-width="1.5"></path><path d="M1274.13 648.25L1274.13 648.25" stroke="rgba(43, 62, 102, 1)" stroke-width="1.5"></path><path d="M1274.13 648.25L1442.38 695.19" stroke="rgba(43, 62, 102, 1)" stroke-width="1.5"></path><path d="M1457.22 -82.28L1457.22 -82.28" stroke="rgba(43, 62, 102, 1)" stroke-width="1.5"></path><path d="M1457.22 -82.28L1586.46 -63.21" stroke="rgba(43, 62, 102, 1)" stroke-width="1.5"></path><path d="M1457.22 -82.28L1453.44 222.86" stroke="rgba(43, 62, 102, 1)" stroke-width="1.5"></path><path d="M1453.44 222.86L1453.44 222.86" stroke="rgba(43, 62, 102, 1)" stroke-width="1.5"></path><path d="M1453.44 222.86L1544.61 213.74" stroke="rgba(43, 62, 102, 1)" stroke-width="1.5"></path><path d="M1453.44 222.86L1431.08 362.96" stroke="rgba(43, 62, 102, 1)" stroke-width="1.5"></path><path d="M1453.44 222.86L1566.8 398.04" stroke="rgba(43, 62, 102, 1)" stroke-width="1.5"></path><path d="M1453.44 222.86L1297.48 370.86" stroke="rgba(43, 62, 102, 1)" stroke-width="1.5"></path><path d="M1431.08 362.96L1431.08 362.96" stroke="rgba(43, 62, 102, 1)" stroke-width="1.5"></path><path d="M1431.08 362.96L1566.8 398.04" stroke="rgba(43, 62, 102, 1)" stroke-width="1.5"></path><path d="M1431.08 362.96L1547.29 506.74" stroke="rgba(43, 62, 102, 1)" stroke-width="1.5"></path><path d="M1448.8 554.27L1448.8 554.27" stroke="rgba(43, 62, 102, 1)" stroke-width="1.5"></path><path d="M1448.8 554.27L1547.29 506.74" stroke="rgba(43, 62, 102, 1)" stroke-width="1.5"></path><path d="M1448.8 554.27L1442.38 695.19" stroke="rgba(43, 62, 102, 1)" stroke-width="1.5"></path><path d="M1442.38 695.19L1442.38 695.19" stroke="rgba(43, 62, 102, 1)" stroke-width="1.5"></path><path d="M1442.38 695.19L1579.24 658.39" stroke="rgba(43, 62, 102, 1)" stroke-width="1.5"></path><path d="M1586.46 -63.21L1586.46 -63.21" stroke="rgba(43, 62, 102, 1)" stroke-width="1.5"></path><path d="M1586.46 -63.21L1544.61 213.74" stroke="rgba(43, 62, 102, 1)" stroke-width="1.5"></path><path d="M1544.61 213.74L1544.61 213.74" stroke="rgba(43, 62, 102, 1)" stroke-width="1.5"></path><path d="M1566.8 398.04L1566.8 398.04" stroke="rgba(43, 62, 102, 1)" stroke-width="1.5"></path><path d="M1566.8 398.04L1547.29 506.74" stroke="rgba(43, 62, 102, 1)" stroke-width="1.5"></path><path d="M1566.8 398.04L1544.61 213.74" stroke="rgba(43, 62, 102, 1)" stroke-width="1.5"></path><path d="M1566.8 398.04L1448.8 554.27" stroke="rgba(43, 62, 102, 1)" stroke-width="1.5"></path><path d="M1547.29 506.74L1547.29 506.74" stroke="rgba(43, 62, 102, 1)" stroke-width="1.5"></path><path d="M1547.29 506.74L1579.24 658.39" stroke="rgba(43, 62, 102, 1)" stroke-width="1.5"></path><path d="M1547.29 506.74L1442.38 695.19" stroke="rgba(43, 62, 102, 1)" stroke-width="1.5"></path><path d="M1579.24 658.39L1579.24 658.39" stroke="rgba(43, 62, 102, 1)" stroke-width="1.5"></path><path d="M1579.24 658.39L1448.8 554.27" stroke="rgba(43, 62, 102, 1)" stroke-width="1.5"></path><circle r="5" cx="-76.96" cy="342.47" fill="rgba(43, 62, 102, 1)"></circle><circle r="5" cx="-46.74" cy="503.16" fill="rgba(43, 62, 102, 1)"></circle><circle r="5" cx="-82.99" cy="662.69" fill="rgba(43, 62, 102, 1)"></circle><circle r="5" cx="111.16" cy="344.01" fill="rgba(43, 62, 102, 1)"></circle><circle r="5" cx="38.46" cy="554.17" fill="rgba(43, 62, 102, 1)"></circle><circle r="5" cx="76.43" cy="698.74" fill="rgba(43, 62, 102, 1)"></circle><circle r="5" cx="212.59" cy="400.85" fill="rgba(43, 62, 102, 1)"></circle><circle r="5" cx="198.44" cy="560.15" fill="rgba(43, 62, 102, 1)"></circle><circle r="5" cx="207.86" cy="698.88" fill="rgba(43, 62, 102, 1)"></circle><circle r="5" cx="379.29" cy="376.09" fill="rgba(43, 62, 102, 1)"></circle><circle r="5" cx="406.86" cy="653.87" fill="rgba(43, 62, 102, 1)"></circle><circle r="5" cx="503.9" cy="353.81" fill="rgba(43, 62, 102, 1)"></circle><circle r="5" cx="528.51" cy="528.48" fill="rgba(43, 62, 102, 1)"></circle><circle r="5" cx="540.42" cy="676.01" fill="rgba(43, 62, 102, 1)"></circle><circle r="5" cx="706.32" cy="225.57" fill="rgba(43, 62, 102, 1)"></circle><circle r="5" cx="700.72" cy="358.34" fill="rgba(43, 62, 102, 1)"></circle><circle r="5" cx="705.65" cy="503.97" fill="rgba(43, 62, 102, 1)"></circle><circle r="5" cx="665.58" cy="679.69" fill="rgba(43, 62, 102, 1)"></circle><circle r="5" cx="856.64" cy="232.66" fill="rgba(43, 62, 102, 1)"></circle><circle r="5" cx="832.38" cy="393.69" fill="rgba(43, 62, 102, 1)"></circle><circle r="5" cx="834.35" cy="524.19" fill="rgba(43, 62, 102, 1)"></circle><circle r="5" cx="822.39" cy="659.58" fill="rgba(43, 62, 102, 1)"></circle><circle r="5" cx="1003.44" cy="-41.65" fill="rgba(43, 62, 102, 1)"></circle><circle r="5" cx="1007.97" cy="105.94" fill="rgba(43, 62, 102, 1)"></circle><circle r="5" cx="1000.2" cy="195.34" fill="rgba(43, 62, 102, 1)"></circle><circle r="5" cx="970.04" cy="399.78" fill="rgba(43, 62, 102, 1)"></circle><circle r="5" cx="976.54" cy="502.95" fill="rgba(43, 62, 102, 1)"></circle><circle r="5" cx="959.82" cy="663.8" fill="rgba(43, 62, 102, 1)"></circle><circle r="5" cx="1117.32" cy="-66.9" fill="rgba(43, 62, 102, 1)"></circle><circle r="5" cx="1139.47" cy="103.85" fill="rgba(43, 62, 102, 1)"></circle><circle r="5" cx="1113.78" cy="193.05" fill="rgba(43, 62, 102, 1)"></circle><circle r="5" cx="1136.41" cy="385.26" fill="rgba(43, 62, 102, 1)"></circle><circle r="5" cx="1123.1" cy="495.68" fill="rgba(43, 62, 102, 1)"></circle><circle r="5" cx="1134.44" cy="641.62" fill="rgba(43, 62, 102, 1)"></circle><circle r="5" cx="1306.53" cy="-75.99" fill="rgba(43, 62, 102, 1)"></circle><circle r="5" cx="1308.55" cy="77.77" fill="rgba(43, 62, 102, 1)"></circle><circle r="5" cx="1294.76" cy="216.89" fill="rgba(43, 62, 102, 1)"></circle><circle r="5" cx="1297.48" cy="370.86" fill="rgba(43, 62, 102, 1)"></circle><circle r="5" cx="1300.64" cy="507.83" fill="rgba(43, 62, 102, 1)"></circle><circle r="5" cx="1274.13" cy="648.25" fill="rgba(43, 62, 102, 1)"></circle><circle r="5" cx="1457.22" cy="-82.28" fill="rgba(43, 62, 102, 1)"></circle><circle r="5" cx="1453.44" cy="222.86" fill="rgba(43, 62, 102, 1)"></circle><circle r="5" cx="1431.08" cy="362.96" fill="rgba(43, 62, 102, 1)"></circle><circle r="5" cx="1448.8" cy="554.27" fill="rgba(43, 62, 102, 1)"></circle><circle r="5" cx="1442.38" cy="695.19" fill="rgba(43, 62, 102, 1)"></circle><circle r="5" cx="1586.46" cy="-63.21" fill="rgba(43, 62, 102, 1)"></circle><circle r="5" cx="1544.61" cy="213.74" fill="rgba(43, 62, 102, 1)"></circle><circle r="5" cx="1566.8" cy="398.04" fill="rgba(43, 62, 102, 1)"></circle><circle r="5" cx="1547.29" cy="506.74" fill="rgba(43, 62, 102, 1)"></circle><circle r="5" cx="1579.24" cy="658.39" fill="rgba(43, 62, 102, 1)"></circle><path d="M-97.4 560.23L-97.4 560.23" stroke="hsl(228.10000000000002, 40.1%, 57.9%)" stroke-width="1.5"></path><path d="M-97.4 560.23L-77.58 661.74" stroke="hsl(228.10000000000002, 40.1%, 57.9%)" stroke-width="1.5"></path><path d="M-97.4 560.23L52.09 493.49" stroke="hsl(228.10000000000002, 40.1%, 57.9%)" stroke-width="1.5"></path><path d="M-97.4 560.23L47.43 649.02" stroke="hsl(228.10000000000002, 40.1%, 57.9%)" stroke-width="1.5"></path><path d="M-97.4 560.23L203.14 686.66" stroke="hsl(228.10000000000002, 40.1%, 57.9%)" stroke-width="1.5"></path><path d="M-97.4 560.23L236.88 503.51" stroke="hsl(228.10000000000002, 40.1%, 57.9%)" stroke-width="1.5"></path><path d="M52.09 493.49L52.09 493.49" stroke="hsl(228.10000000000002, 40.1%, 57.9%)" stroke-width="1.5"></path><path d="M52.09 493.49L47.43 649.02" stroke="hsl(228.10000000000002, 40.1%, 57.9%)" stroke-width="1.5"></path><path d="M52.09 493.49L236.88 503.51" stroke="hsl(228.10000000000002, 40.1%, 57.9%)" stroke-width="1.5"></path><path d="M52.09 493.49L-77.58 661.74" stroke="hsl(228.10000000000002, 40.1%, 57.9%)" stroke-width="1.5"></path><path d="M236.88 503.51L236.88 503.51" stroke="hsl(228.10000000000002, 40.1%, 57.9%)" stroke-width="1.5"></path><path d="M236.88 503.51L341.95 517.36" stroke="hsl(228.10000000000002, 40.1%, 57.9%)" stroke-width="1.5"></path><path d="M236.88 503.51L203.14 686.66" stroke="hsl(228.10000000000002, 40.1%, 57.9%)" stroke-width="1.5"></path><path d="M236.88 503.51L379.62 659.09" stroke="hsl(228.10000000000002, 40.1%, 57.9%)" stroke-width="1.5"></path><path d="M236.88 503.51L47.43 649.02" stroke="hsl(228.10000000000002, 40.1%, 57.9%)" stroke-width="1.5"></path><path d="M236.88 503.51L545.41 546.93" stroke="hsl(228.10000000000002, 40.1%, 57.9%)" stroke-width="1.5"></path><path d="M545.41 546.93L545.41 546.93" stroke="hsl(228.10000000000002, 40.1%, 57.9%)" stroke-width="1.5"></path><path d="M545.41 546.93L650.29 496.95" stroke="hsl(228.10000000000002, 40.1%, 57.9%)" stroke-width="1.5"></path><path d="M545.41 546.93L652.02 667.4" stroke="hsl(228.10000000000002, 40.1%, 57.9%)" stroke-width="1.5"></path><path d="M545.41 546.93L493.52 711.47" stroke="hsl(228.10000000000002, 40.1%, 57.9%)" stroke-width="1.5"></path><path d="M687.74 368.75L687.74 368.75" stroke="hsl(228.10000000000002, 40.1%, 57.9%)" stroke-width="1.5"></path><path d="M687.74 368.75L650.29 496.95" stroke="hsl(228.10000000000002, 40.1%, 57.9%)" stroke-width="1.5"></path><path d="M687.74 368.75L840.94 342.2" stroke="hsl(228.10000000000002, 40.1%, 57.9%)" stroke-width="1.5"></path><path d="M1304.29 659.91L1304.29 659.91" stroke="hsl(228.10000000000002, 40.1%, 57.9%)" stroke-width="1.5"></path><path d="M1304.29 659.91L1406.65 649.04" stroke="hsl(228.10000000000002, 40.1%, 57.9%)" stroke-width="1.5"></path><path d="M1304.29 659.91L1267.92 552.77" stroke="hsl(228.10000000000002, 40.1%, 57.9%)" stroke-width="1.5"></path><path d="M1422.9 -45.69L1422.9 -45.69" stroke="hsl(228.10000000000002, 40.1%, 57.9%)" stroke-width="1.5"></path><path d="M1422.9 -45.69L1431.55 42.07" stroke="hsl(228.10000000000002, 40.1%, 57.9%)" stroke-width="1.5"></path><path d="M1414.12 206.07L1414.12 206.07" stroke="hsl(228.10000000000002, 40.1%, 57.9%)" stroke-width="1.5"></path><path d="M1414.12 206.07L1538.47 98.75" stroke="hsl(228.10000000000002, 40.1%, 57.9%)" stroke-width="1.5"></path><path d="M1414.12 206.07L1431.55 42.07" stroke="hsl(228.10000000000002, 40.1%, 57.9%)" stroke-width="1.5"></path><path d="M1414.12 206.07L1592.74 230.59" stroke="hsl(228.10000000000002, 40.1%, 57.9%)" stroke-width="1.5"></path><path d="M1414.12 206.07L1302.37 39.66" stroke="hsl(228.10000000000002, 40.1%, 57.9%)" stroke-width="1.5"></path><path d="M-77.58 661.74L-77.58 661.74" stroke="hsl(228.10000000000002, 40.1%, 57.9%)" stroke-width="1.5"></path><path d="M-77.58 661.74L47.43 649.02" stroke="hsl(228.10000000000002, 40.1%, 57.9%)" stroke-width="1.5"></path><path d="M47.43 649.02L47.43 649.02" stroke="hsl(228.10000000000002, 40.1%, 57.9%)" stroke-width="1.5"></path><path d="M47.43 649.02L203.14 686.66" stroke="hsl(228.10000000000002, 40.1%, 57.9%)" stroke-width="1.5"></path><path d="M47.43 649.02L341.95 517.36" stroke="hsl(228.10000000000002, 40.1%, 57.9%)" stroke-width="1.5"></path><path d="M203.14 686.66L203.14 686.66" stroke="hsl(228.10000000000002, 40.1%, 57.9%)" stroke-width="1.5"></path><path d="M203.14 686.66L379.62 659.09" stroke="hsl(228.10000000000002, 40.1%, 57.9%)" stroke-width="1.5"></path><path d="M203.14 686.66L341.95 517.36" stroke="hsl(228.10000000000002, 40.1%, 57.9%)" stroke-width="1.5"></path><path d="M341.95 517.36L341.95 517.36" stroke="hsl(228.10000000000002, 40.1%, 57.9%)" stroke-width="1.5"></path><path d="M341.95 517.36L379.62 659.09" stroke="hsl(228.10000000000002, 40.1%, 57.9%)" stroke-width="1.5"></path><path d="M379.62 659.09L379.62 659.09" stroke="hsl(228.10000000000002, 40.1%, 57.9%)" stroke-width="1.5"></path><path d="M379.62 659.09L493.52 711.47" stroke="hsl(228.10000000000002, 40.1%, 57.9%)" stroke-width="1.5"></path><path d="M379.62 659.09L545.41 546.93" stroke="hsl(228.10000000000002, 40.1%, 57.9%)" stroke-width="1.5"></path><path d="M379.62 659.09L652.02 667.4" stroke="hsl(228.10000000000002, 40.1%, 57.9%)" stroke-width="1.5"></path><path d="M493.52 711.47L493.52 711.47" stroke="hsl(228.10000000000002, 40.1%, 57.9%)" stroke-width="1.5"></path><path d="M493.52 711.47L652.02 667.4" stroke="hsl(228.10000000000002, 40.1%, 57.9%)" stroke-width="1.5"></path><path d="M493.52 711.47L341.95 517.36" stroke="hsl(228.10000000000002, 40.1%, 57.9%)" stroke-width="1.5"></path><path d="M493.52 711.47L650.29 496.95" stroke="hsl(228.10000000000002, 40.1%, 57.9%)" stroke-width="1.5"></path><path d="M650.29 496.95L650.29 496.95" stroke="hsl(228.10000000000002, 40.1%, 57.9%)" stroke-width="1.5"></path><path d="M652.02 667.4L652.02 667.4" stroke="hsl(228.10000000000002, 40.1%, 57.9%)" stroke-width="1.5"></path><path d="M652.02 667.4L820.55 657.78" stroke="hsl(228.10000000000002, 40.1%, 57.9%)" stroke-width="1.5"></path><path d="M652.02 667.4L650.29 496.95" stroke="hsl(228.10000000000002, 40.1%, 57.9%)" stroke-width="1.5"></path><path d="M652.02 667.4L835.34 533.95" stroke="hsl(228.10000000000002, 40.1%, 57.9%)" stroke-width="1.5"></path><path d="M840.94 342.2L840.94 342.2" stroke="hsl(228.10000000000002, 40.1%, 57.9%)" stroke-width="1.5"></path><path d="M840.94 342.2L987.26 406.77" stroke="hsl(228.10000000000002, 40.1%, 57.9%)" stroke-width="1.5"></path><path d="M840.94 342.2L835.34 533.95" stroke="hsl(228.10000000000002, 40.1%, 57.9%)" stroke-width="1.5"></path><path d="M840.94 342.2L994.55 514.42" stroke="hsl(228.10000000000002, 40.1%, 57.9%)" stroke-width="1.5"></path><path d="M840.94 342.2L650.29 496.95" stroke="hsl(228.10000000000002, 40.1%, 57.9%)" stroke-width="1.5"></path><path d="M840.94 342.2L1095.47 245.49" stroke="hsl(228.10000000000002, 40.1%, 57.9%)" stroke-width="1.5"></path><path d="M835.34 533.95L835.34 533.95" stroke="hsl(228.10000000000002, 40.1%, 57.9%)" stroke-width="1.5"></path><path d="M835.34 533.95L820.55 657.78" stroke="hsl(228.10000000000002, 40.1%, 57.9%)" stroke-width="1.5"></path><path d="M835.34 533.95L994.55 514.42" stroke="hsl(228.10000000000002, 40.1%, 57.9%)" stroke-width="1.5"></path><path d="M835.34 533.95L941.66 680.89" stroke="hsl(228.10000000000002, 40.1%, 57.9%)" stroke-width="1.5"></path><path d="M835.34 533.95L650.29 496.95" stroke="hsl(228.10000000000002, 40.1%, 57.9%)" stroke-width="1.5"></path><path d="M820.55 657.78L820.55 657.78" stroke="hsl(228.10000000000002, 40.1%, 57.9%)" stroke-width="1.5"></path><path d="M820.55 657.78L941.66 680.89" stroke="hsl(228.10000000000002, 40.1%, 57.9%)" stroke-width="1.5"></path><path d="M987.26 406.77L987.26 406.77" stroke="hsl(228.10000000000002, 40.1%, 57.9%)" stroke-width="1.5"></path><path d="M987.26 406.77L994.55 514.42" stroke="hsl(228.10000000000002, 40.1%, 57.9%)" stroke-width="1.5"></path><path d="M994.55 514.42L994.55 514.42" stroke="hsl(228.10000000000002, 40.1%, 57.9%)" stroke-width="1.5"></path><path d="M941.66 680.89L941.66 680.89" stroke="hsl(228.10000000000002, 40.1%, 57.9%)" stroke-width="1.5"></path><path d="M941.66 680.89L994.55 514.42" stroke="hsl(228.10000000000002, 40.1%, 57.9%)" stroke-width="1.5"></path><path d="M941.66 680.89L1148.28 646.28" stroke="hsl(228.10000000000002, 40.1%, 57.9%)" stroke-width="1.5"></path><path d="M941.66 680.89L987.26 406.77" stroke="hsl(228.10000000000002, 40.1%, 57.9%)" stroke-width="1.5"></path><path d="M1095.47 245.49L1095.47 245.49" stroke="hsl(228.10000000000002, 40.1%, 57.9%)" stroke-width="1.5"></path><path d="M1095.47 245.49L987.26 406.77" stroke="hsl(228.10000000000002, 40.1%, 57.9%)" stroke-width="1.5"></path><path d="M1095.47 245.49L1154.17 493.12" stroke="hsl(228.10000000000002, 40.1%, 57.9%)" stroke-width="1.5"></path><path d="M1095.47 245.49L994.55 514.42" stroke="hsl(228.10000000000002, 40.1%, 57.9%)" stroke-width="1.5"></path><path d="M1095.47 245.49L1302.37 39.66" stroke="hsl(228.10000000000002, 40.1%, 57.9%)" stroke-width="1.5"></path><path d="M1095.47 245.49L1414.12 206.07" stroke="hsl(228.10000000000002, 40.1%, 57.9%)" stroke-width="1.5"></path><path d="M1154.17 493.12L1154.17 493.12" stroke="hsl(228.10000000000002, 40.1%, 57.9%)" stroke-width="1.5"></path><path d="M1154.17 493.12L1267.92 552.77" stroke="hsl(228.10000000000002, 40.1%, 57.9%)" stroke-width="1.5"></path><path d="M1154.17 493.12L1148.28 646.28" stroke="hsl(228.10000000000002, 40.1%, 57.9%)" stroke-width="1.5"></path><path d="M1154.17 493.12L994.55 514.42" stroke="hsl(228.10000000000002, 40.1%, 57.9%)" stroke-width="1.5"></path><path d="M1154.17 493.12L987.26 406.77" stroke="hsl(228.10000000000002, 40.1%, 57.9%)" stroke-width="1.5"></path><path d="M1148.28 646.28L1148.28 646.28" stroke="hsl(228.10000000000002, 40.1%, 57.9%)" stroke-width="1.5"></path><path d="M1148.28 646.28L1267.92 552.77" stroke="hsl(228.10000000000002, 40.1%, 57.9%)" stroke-width="1.5"></path><path d="M1148.28 646.28L1304.29 659.91" stroke="hsl(228.10000000000002, 40.1%, 57.9%)" stroke-width="1.5"></path><path d="M1148.28 646.28L994.55 514.42" stroke="hsl(228.10000000000002, 40.1%, 57.9%)" stroke-width="1.5"></path><path d="M1268.42 -102.62L1268.42 -102.62" stroke="hsl(228.10000000000002, 40.1%, 57.9%)" stroke-width="1.5"></path><path d="M1268.42 -102.62L1302.37 39.66" stroke="hsl(228.10000000000002, 40.1%, 57.9%)" stroke-width="1.5"></path><path d="M1268.42 -102.62L1422.9 -45.69" stroke="hsl(228.10000000000002, 40.1%, 57.9%)" stroke-width="1.5"></path><path d="M1268.42 -102.62L1431.55 42.07" stroke="hsl(228.10000000000002, 40.1%, 57.9%)" stroke-width="1.5"></path><path d="M1268.42 -102.62L1582.06 -83.87" stroke="hsl(228.10000000000002, 40.1%, 57.9%)" stroke-width="1.5"></path><path d="M1268.42 -102.62L1538.47 98.75" stroke="hsl(228.10000000000002, 40.1%, 57.9%)" stroke-width="1.5"></path><path d="M1268.42 -102.62L1414.12 206.07" stroke="hsl(228.10000000000002, 40.1%, 57.9%)" stroke-width="1.5"></path><path d="M1302.37 39.66L1302.37 39.66" stroke="hsl(228.10000000000002, 40.1%, 57.9%)" stroke-width="1.5"></path><path d="M1302.37 39.66L1431.55 42.07" stroke="hsl(228.10000000000002, 40.1%, 57.9%)" stroke-width="1.5"></path><path d="M1302.37 39.66L1422.9 -45.69" stroke="hsl(228.10000000000002, 40.1%, 57.9%)" stroke-width="1.5"></path><path d="M1302.37 39.66L1538.47 98.75" stroke="hsl(228.10000000000002, 40.1%, 57.9%)" stroke-width="1.5"></path><path d="M1267.92 552.77L1267.92 552.77" stroke="hsl(228.10000000000002, 40.1%, 57.9%)" stroke-width="1.5"></path><path d="M1267.92 552.77L1414.41 552.28" stroke="hsl(228.10000000000002, 40.1%, 57.9%)" stroke-width="1.5"></path><path d="M1431.55 42.07L1431.55 42.07" stroke="hsl(228.10000000000002, 40.1%, 57.9%)" stroke-width="1.5"></path><path d="M1431.55 42.07L1538.47 98.75" stroke="hsl(228.10000000000002, 40.1%, 57.9%)" stroke-width="1.5"></path><path d="M1431.55 42.07L1582.06 -83.87" stroke="hsl(228.10000000000002, 40.1%, 57.9%)" stroke-width="1.5"></path><path d="M1406 409.73L1406 409.73" stroke="hsl(228.10000000000002, 40.1%, 57.9%)" stroke-width="1.5"></path><path d="M1406 409.73L1414.41 552.28" stroke="hsl(228.10000000000002, 40.1%, 57.9%)" stroke-width="1.5"></path><path d="M1406 409.73L1565.17 341.32" stroke="hsl(228.10000000000002, 40.1%, 57.9%)" stroke-width="1.5"></path><path d="M1406 409.73L1267.92 552.77" stroke="hsl(228.10000000000002, 40.1%, 57.9%)" stroke-width="1.5"></path><path d="M1406 409.73L1414.12 206.07" stroke="hsl(228.10000000000002, 40.1%, 57.9%)" stroke-width="1.5"></path><path d="M1414.41 552.28L1414.41 552.28" stroke="hsl(228.10000000000002, 40.1%, 57.9%)" stroke-width="1.5"></path><path d="M1414.41 552.28L1406.65 649.04" stroke="hsl(228.10000000000002, 40.1%, 57.9%)" stroke-width="1.5"></path><path d="M1406.65 649.04L1406.65 649.04" stroke="hsl(228.10000000000002, 40.1%, 57.9%)" stroke-width="1.5"></path><path d="M1582.06 -83.87L1582.06 -83.87" stroke="hsl(228.10000000000002, 40.1%, 57.9%)" stroke-width="1.5"></path><path d="M1582.06 -83.87L1422.9 -45.69" stroke="hsl(228.10000000000002, 40.1%, 57.9%)" stroke-width="1.5"></path><path d="M1582.06 -83.87L1538.47 98.75" stroke="hsl(228.10000000000002, 40.1%, 57.9%)" stroke-width="1.5"></path><path d="M1582.06 -83.87L1302.37 39.66" stroke="hsl(228.10000000000002, 40.1%, 57.9%)" stroke-width="1.5"></path><path d="M1538.47 98.75L1538.47 98.75" stroke="hsl(228.10000000000002, 40.1%, 57.9%)" stroke-width="1.5"></path><path d="M1538.47 98.75L1592.74 230.59" stroke="hsl(228.10000000000002, 40.1%, 57.9%)" stroke-width="1.5"></path><path d="M1538.47 98.75L1422.9 -45.69" stroke="hsl(228.10000000000002, 40.1%, 57.9%)" stroke-width="1.5"></path><path d="M1592.74 230.59L1592.74 230.59" stroke="hsl(228.10000000000002, 40.1%, 57.9%)" stroke-width="1.5"></path><path d="M1592.74 230.59L1565.17 341.32" stroke="hsl(228.10000000000002, 40.1%, 57.9%)" stroke-width="1.5"></path><path d="M1592.74 230.59L1431.55 42.07" stroke="hsl(228.10000000000002, 40.1%, 57.9%)" stroke-width="1.5"></path><path d="M1592.74 230.59L1406 409.73" stroke="hsl(228.10000000000002, 40.1%, 57.9%)" stroke-width="1.5"></path><path d="M1565.17 341.32L1565.17 341.32" stroke="hsl(228.10000000000002, 40.1%, 57.9%)" stroke-width="1.5"></path><path d="M1565.17 341.32L1414.12 206.07" stroke="hsl(228.10000000000002, 40.1%, 57.9%)" stroke-width="1.5"></path><path d="M1565.17 341.32L1558.05 550.37" stroke="hsl(228.10000000000002, 40.1%, 57.9%)" stroke-width="1.5"></path><path d="M1565.17 341.32L1538.47 98.75" stroke="hsl(228.10000000000002, 40.1%, 57.9%)" stroke-width="1.5"></path><path d="M1558.05 550.37L1558.05 550.37" stroke="hsl(228.10000000000002, 40.1%, 57.9%)" stroke-width="1.5"></path><path d="M1558.05 550.37L1609.99 653.24" stroke="hsl(228.10000000000002, 40.1%, 57.9%)" stroke-width="1.5"></path><path d="M1558.05 550.37L1414.41 552.28" stroke="hsl(228.10000000000002, 40.1%, 57.9%)" stroke-width="1.5"></path><path d="M1558.05 550.37L1406.65 649.04" stroke="hsl(228.10000000000002, 40.1%, 57.9%)" stroke-width="1.5"></path><path d="M1558.05 550.37L1406 409.73" stroke="hsl(228.10000000000002, 40.1%, 57.9%)" stroke-width="1.5"></path><path d="M1609.99 653.24L1609.99 653.24" stroke="hsl(228.10000000000002, 40.1%, 57.9%)" stroke-width="1.5"></path><path d="M1609.99 653.24L1406.65 649.04" stroke="hsl(228.10000000000002, 40.1%, 57.9%)" stroke-width="1.5"></path><path d="M1609.99 653.24L1414.41 552.28" stroke="hsl(228.10000000000002, 40.1%, 57.9%)" stroke-width="1.5"></path><path d="M1609.99 653.24L1304.29 659.91" stroke="hsl(228.10000000000002, 40.1%, 57.9%)" stroke-width="1.5"></path><path d="M1609.99 653.24L1565.17 341.32" stroke="hsl(228.10000000000002, 40.1%, 57.9%)" stroke-width="1.5"></path><circle r="25" cx="-97.4" cy="560.23" fill="url(#SvgjsRadialGradient1045)"></circle><circle r="25" cx="52.09" cy="493.49" fill="url(#SvgjsRadialGradient1045)"></circle><circle r="25" cx="236.88" cy="503.51" fill="url(#SvgjsRadialGradient1045)"></circle><circle r="25" cx="545.41" cy="546.93" fill="url(#SvgjsRadialGradient1045)"></circle><circle r="25" cx="687.74" cy="368.75" fill="url(#SvgjsRadialGradient1045)"></circle><circle r="25" cx="1304.29" cy="659.91" fill="url(#SvgjsRadialGradient1045)"></circle><circle r="25" cx="1422.9" cy="-45.69" fill="url(#SvgjsRadialGradient1045)"></circle><circle r="25" cx="1414.12" cy="206.07" fill="url(#SvgjsRadialGradient1045)"></circle><circle r="5" cx="-77.58" cy="661.74" fill="#a2abcf"></circle><circle r="5" cx="47.43" cy="649.02" fill="#a2abcf"></circle><circle r="5" cx="203.14" cy="686.66" fill="#a2abcf"></circle><circle r="5" cx="341.95" cy="517.36" fill="#a2abcf"></circle><circle r="5" cx="379.62" cy="659.09" fill="#a2abcf"></circle><circle r="5" cx="493.52" cy="711.47" fill="#a2abcf"></circle><circle r="5" cx="650.29" cy="496.95" fill="#a2abcf"></circle><circle r="5" cx="652.02" cy="667.4" fill="#a2abcf"></circle><circle r="5" cx="840.94" cy="342.2" fill="#a2abcf"></circle><circle r="5" cx="835.34" cy="533.95" fill="#a2abcf"></circle><circle r="5" cx="820.55" cy="657.78" fill="#a2abcf"></circle><circle r="5" cx="987.26" cy="406.77" fill="#a2abcf"></circle><circle r="5" cx="994.55" cy="514.42" fill="#a2abcf"></circle><circle r="5" cx="941.66" cy="680.89" fill="#a2abcf"></circle><circle r="5" cx="1095.47" cy="245.49" fill="#a2abcf"></circle><circle r="5" cx="1154.17" cy="493.12" fill="#a2abcf"></circle><circle r="5" cx="1148.28" cy="646.28" fill="#a2abcf"></circle><circle r="5" cx="1268.42" cy="-102.62" fill="#a2abcf"></circle><circle r="5" cx="1302.37" cy="39.66" fill="#a2abcf"></circle><circle r="5" cx="1267.92" cy="552.77" fill="#a2abcf"></circle><circle r="5" cx="1431.55" cy="42.07" fill="#a2abcf"></circle><circle r="5" cx="1406" cy="409.73" fill="#a2abcf"></circle><circle r="5" cx="1414.41" cy="552.28" fill="#a2abcf"></circle><circle r="5" cx="1406.65" cy="649.04" fill="#a2abcf"></circle><circle r="5" cx="1582.06" cy="-83.87" fill="#a2abcf"></circle><circle r="5" cx="1538.47" cy="98.75" fill="#a2abcf"></circle><circle r="5" cx="1592.74" cy="230.59" fill="#a2abcf"></circle><circle r="5" cx="1565.17" cy="341.32" fill="#a2abcf"></circle><circle r="5" cx="1558.05" cy="550.37" fill="#a2abcf"></circle><circle r="5" cx="1609.99" cy="653.24" fill="#a2abcf"></circle></g><defs><mask id="SvgjsMask1044"><rect width="1440" height="560" fill="#ffffff"></rect></mask><radialGradient id="SvgjsRadialGradient1045"><stop stop-color="#ffffff" offset="0.1"></stop><stop stop-color="rgba(68, 86, 159, 1)" offset="0.2"></stop><stop stop-color="rgba(68, 86, 159, 0)" offset="1"></stop></radialGradient></defs></svg>